<mxfile host="app.diagrams.net" modified="2024-05-19T19:19:04.829Z" agent="Mozilla/5.0 (Windows NT 10.0; Win64; x64) AppleWebKit/537.36 (KHTML, like Gecko) Chrome/125.0.0.0 Safari/537.36" etag="9A0GQy39qsg3FNuLPixf" version="24.4.0" type="device">
  <diagram name="Page-1" id="CGfdCrzPEF4ukHhdDVFB">
    <mxGraphModel dx="830" dy="477" grid="1" gridSize="10" guides="1" tooltips="1" connect="1" arrows="1" fold="1" page="1" pageScale="1" pageWidth="850" pageHeight="1100" math="0" shadow="0">
      <root>
        <mxCell id="0" />
        <mxCell id="1" parent="0" />
        <mxCell id="PgFyWYP4CkE7dUWukgqQ-7" value="" style="rounded=0;whiteSpace=wrap;html=1;fillColor=#1ba1e2;strokeColor=#006EAF;fontColor=#ffffff;gradientColor=#F5F5F5;" vertex="1" parent="1">
          <mxGeometry x="550" y="480" width="50" height="100" as="geometry" />
        </mxCell>
        <mxCell id="PgFyWYP4CkE7dUWukgqQ-3" value="" style="rounded=0;whiteSpace=wrap;html=1;fillColor=#1ba1e2;strokeColor=#006EAF;fontColor=#ffffff;gradientColor=#F5F5F5;" vertex="1" parent="1">
          <mxGeometry x="300" y="460" width="250" height="110" as="geometry" />
        </mxCell>
        <mxCell id="PgFyWYP4CkE7dUWukgqQ-1" value="" style="ellipse;whiteSpace=wrap;html=1;aspect=fixed;fillColor=#dae8fc;gradientColor=#7ea6e0;strokeColor=#6c8ebf;" vertex="1" parent="1">
          <mxGeometry x="260" y="520" width="100" height="100" as="geometry" />
        </mxCell>
        <mxCell id="PgFyWYP4CkE7dUWukgqQ-2" value="" style="ellipse;whiteSpace=wrap;html=1;aspect=fixed;fillColor=#dae8fc;gradientColor=#7ea6e0;strokeColor=#6c8ebf;" vertex="1" parent="1">
          <mxGeometry x="490" y="520" width="100" height="100" as="geometry" />
        </mxCell>
        <mxCell id="PgFyWYP4CkE7dUWukgqQ-4" value="" style="ellipse;whiteSpace=wrap;html=1;aspect=fixed;gradientColor=default;" vertex="1" parent="1">
          <mxGeometry x="290" y="550" width="40" height="40" as="geometry" />
        </mxCell>
        <mxCell id="PgFyWYP4CkE7dUWukgqQ-5" value="" style="ellipse;whiteSpace=wrap;html=1;aspect=fixed;fillColor=#dae8fc;gradientColor=#7ea6e0;strokeColor=#6c8ebf;rotation=-225;" vertex="1" parent="1">
          <mxGeometry x="285" y="545" width="50" height="50" as="geometry" />
        </mxCell>
        <mxCell id="PgFyWYP4CkE7dUWukgqQ-6" value="" style="ellipse;whiteSpace=wrap;html=1;aspect=fixed;fillColor=#dae8fc;gradientColor=#7ea6e0;strokeColor=#6c8ebf;rotation=-225;" vertex="1" parent="1">
          <mxGeometry x="515" y="545" width="50" height="50" as="geometry" />
        </mxCell>
      </root>
    </mxGraphModel>
  </diagram>
</mxfile>
